<?xml version="1.0" standalone="no"?>
<!DOCTYPE svg PUBLIC "-//W3C//DTD SVG 20010904//EN"
 "http://www.w3.org/TR/2001/REC-SVG-20010904/DTD/svg10.dtd">
<svg version="1.0" xmlns="http://www.w3.org/2000/svg"
 width="100.000000pt" height="100.000000pt" viewBox="0 0 100.000000 100.000000"
 preserveAspectRatio="xMidYMid meet">
<metadata>
Created by potrace 1.14, written by Peter Selinger 2001-2017
</metadata>
<g transform="translate(0.000000,100.000000) scale(0.100000,-0.100000)"
fill="#000000" stroke="none">
<path d="M135 984 c-45 -23 -101 -81 -120 -124 -33 -74 -9 -115 136 -229 37
-29 121 -55 152 -47 43 10 105 73 113 112 9 46 -17 110 -69 177 -97 122 -144
147 -212 111z m78 -70 c9 -10 -122 -136 -134 -128 -7 4 13 31 52 70 64 64 71
69 82 58z m-18 -104 c-60 -61 -75 -70 -75 -48 0 22 113 129 124 118 7 -7 -10
-30 -49 -70z m95 31 c0 -13 -116 -131 -129 -131 -21 0 -10 17 51 78 60 60 78
72 78 53z m40 -116 c10 -12 10 -21 2 -40 -13 -28 -29 -31 -57 -11 -17 12 -18
18 -7 40 13 29 43 34 62 11z"/>
<path d="M731 724 c-19 -8 -57 -34 -85 -58 -101 -86 -143 -101 -200 -71 -26
14 -31 14 -44 1 -13 -12 -9 -17 26 -35 74 -38 118 -26 227 62 82 67 120 82
181 72 89 -13 148 -117 114 -200 -16 -39 -18 -77 -4 -82 14 -5 54 86 54 122 0
48 -21 112 -47 140 -55 59 -151 80 -222 49z"/>
<path d="M53 430 c-49 -20 -55 -46 -51 -219 3 -152 4 -162 26 -183 l23 -23
409 0 409 0 23 23 c22 22 23 29 23 192 0 163 -1 170 -23 192 l-23 23 -397 2
c-218 1 -407 -2 -419 -7z m102 -211 c0 -95 -3 -114 -15 -114 -12 0 -16 20 -18
104 -3 112 1 135 21 128 9 -3 12 -35 12 -118z m80 0 c0 -95 -3 -114 -15 -114
-12 0 -16 20 -18 104 -3 112 1 135 21 128 9 -3 12 -35 12 -118z m80 0 c0 -95
-3 -114 -15 -114 -12 0 -16 20 -18 104 -3 112 1 135 21 128 9 -3 12 -35 12
-118z m80 0 c0 -95 -3 -114 -15 -114 -12 0 -16 20 -18 104 -3 112 1 135 21
128 9 -3 12 -35 12 -118z m400 71 l0 -45 -165 0 -165 0 -3 33 c-6 64 -9 63
170 60 l163 -3 0 -45z m-263 -135 c8 -19 8 -28 -2 -40 -30 -36 -82 -3 -62 40
7 15 20 25 32 25 12 0 25 -10 32 -25z m258 10 c15 -18 10 -45 -12 -59 -35 -22
-74 27 -48 59 16 19 44 19 60 0z"/>
</g>
</svg>
