<?xml version="1.0" encoding="UTF-8" standalone="no"?>
<svg
   width="1960"
   height="633.28192"
   viewBox="0 0 518.58331 167.55584"
   version="1.1"
   id="svg8"
   inkscape:version="1.1.1 (3bf5ae0d25, 2021-09-20)"
   sodipodi:docname="zl2toy.svg"
   xmlns:inkscape="http://www.inkscape.org/namespaces/inkscape"
   xmlns:sodipodi="http://sodipodi.sourceforge.net/DTD/sodipodi-0.dtd"
   xmlns="http://www.w3.org/2000/svg"
   xmlns:svg="http://www.w3.org/2000/svg"
   xmlns:rdf="http://www.w3.org/1999/02/22-rdf-syntax-ns#"
   xmlns:cc="http://creativecommons.org/ns#"
   xmlns:dc="http://purl.org/dc/elements/1.1/">
  <defs
     id="defs2">
    <rect
       x="628.31488"
       y="48.487322"
       width="1276.8328"
       height="537.40115"
       id="rect10895" />
    <rect
       x="57.730217"
       y="126.68576"
       width="124.5476"
       height="31.805075"
       id="rect849" />
    <rect
       x="57.730217"
       y="126.68576"
       width="124.5476"
       height="31.805075"
       id="rect849-7" />
    <rect
       x="57.730217"
       y="126.68576"
       width="124.5476"
       height="31.805075"
       id="rect862" />
    <rect
       x="628.31488"
       y="48.487324"
       width="1276.8328"
       height="537.40112"
       id="rect10895-5" />
  </defs>
  <sodipodi:namedview
     id="base"
     pagecolor="#ffffff"
     bordercolor="#666666"
     borderopacity="1.0"
     inkscape:pageopacity="0.0"
     inkscape:pageshadow="2"
     inkscape:zoom="0.49497475"
     inkscape:cx="1063.6906"
     inkscape:cy="392.94934"
     inkscape:document-units="mm"
     inkscape:current-layer="g899"
     inkscape:document-rotation="0"
     showgrid="false"
     fit-margin-top="20"
     fit-margin-left="20"
     fit-margin-right="20"
     fit-margin-bottom="20"
     units="px"
     inkscape:window-width="1920"
     inkscape:window-height="1017"
     inkscape:window-x="1912"
     inkscape:window-y="-8"
     inkscape:window-maximized="1"
     lock-margins="true"
     inkscape:pagecheckerboard="0" />
  <metadata
     id="metadata5">
    <rdf:RDF>
      <cc:Work
         rdf:about="">
        <dc:format>image/svg+xml</dc:format>
        <dc:type
           rdf:resource="http://purl.org/dc/dcmitype/StillImage" />
      </cc:Work>
    </rdf:RDF>
  </metadata>
  <g
     inkscape:label="Layer 1"
     inkscape:groupmode="layer"
     id="layer1"
     transform="translate(-98.961241,-84.396464)">
    <g
       id="g1229"
       transform="matrix(6.9045425,0,0,6.9045425,-615.56572,-529.56733)">
      <g
         id="g899"
         transform="translate(34.490327,-21.915188)">
        <text
           xml:space="preserve"
           transform="matrix(0.03832018,0,0,0.03832018,69.247168,111.55863)"
           id="text10893-6"
           style="font-style:normal;font-weight:normal;font-size:400px;line-height:1.25;font-family:sans-serif;white-space:pre;shape-inside:url(#rect10895-5);fill:#cccccc;fill-opacity:1;stroke:none"><tspan
             x="628.31445"
             y="442.23828"
             id="tspan28275"><tspan
               style="font-family:NSimSun;-inkscape-font-specification:NSimSun"
               id="tspan28273">ZL2TOY</tspan></tspan></text>
        <text
           xml:space="preserve"
           transform="matrix(0.03832018,0,0,0.03832018,68.996176,111.38283)"
           id="text10893"
           style="font-style:normal;font-weight:normal;font-size:400px;line-height:1.25;font-family:sans-serif;white-space:pre;shape-inside:url(#rect10895);fill:#000000;fill-opacity:1;stroke:none"><tspan
             x="628.31445"
             y="442.23828"
             id="tspan28279"><tspan
               style="font-family:NSimSun;-inkscape-font-specification:NSimSun"
               id="tspan28277">ZL2TOY</tspan></tspan></text>
      </g>
      <g
         id="g1198"
         transform="matrix(0.05789806,0,0,0.05789806,102.30902,89.688138)">
        <g
           id="g1135">
          <path
             style="fill:#194f82"
             d="m 96.62,218.15 c -55.014,-55.014 -55.014,-144.485 0,-199.499 4.267,-4.267 4.267,-11.119 0,-15.451 -4.267,-4.267 -11.119,-4.267 -15.451,0 -61.931,61.931 -64.97,165.172 0,230.335 4.267,4.267 11.119,4.267 15.451,0 4.267,-4.202 4.267,-11.054 0,-15.385 z"
             id="path1125" />
          <path
             style="fill:#194f82"
             d="m 118.988,195.717 c 4.267,4.267 11.119,4.267 15.45,0 4.267,-4.267 4.267,-11.119 0,-15.451 -34.133,-34.069 -34.133,-89.665 0,-123.733 4.267,-4.267 4.267,-11.119 0,-15.451 -4.267,-4.267 -11.119,-4.267 -15.45,0 -42.473,42.021 -42.473,112.486 0,154.635 z"
             id="path1127" />
          <path
             style="fill:#194f82"
             d="m 311.57,3.265 c -4.267,-4.267 -11.119,-4.267 -15.451,0 -4.267,4.267 -4.267,11.119 0,15.451 55.014,55.014 55.014,144.485 0,199.499 -4.267,4.267 -4.267,11.119 0,15.451 4.267,4.267 11.119,4.267 15.451,0 64.905,-65.1 61.802,-168.341 0,-230.401 z"
             id="path1129" />
          <path
             style="fill:#194f82"
             d="m 258.236,180.267 c -4.267,4.267 -4.267,11.119 0,15.451 4.267,4.267 11.119,4.267 15.451,0 42.473,-42.214 42.473,-112.679 0,-154.634 -4.267,-4.267 -11.119,-4.267 -15.451,0 -4.267,4.267 -4.267,11.119 0,15.451 34.198,34.196 34.198,89.663 0,123.732 z"
             id="path1131" />
          <path
             style="fill:#194f82"
             d="m 222.616,167.596 c 17.519,-9.438 29.414,-27.927 29.414,-49.131 0,-30.772 -25.018,-55.79 -55.79,-55.79 -30.772,0 -55.79,25.018 -55.79,55.79 0,21.269 11.96,39.693 29.543,49.131 L 90.996,377.891 c -2.069,5.624 0.711,11.895 6.335,14.093 5.624,2.069 11.895,-0.711 14.093,-6.335 l 23.855,-63.547 139.96,47.192 6.077,16.291 c 2.069,5.624 8.404,8.469 14.093,6.335 5.624,-2.069 8.469,-8.404 6.335,-14.093 z M 196.37,84.461 c 18.683,0 33.939,15.192 33.939,33.939 0,18.747 -15.192,33.939 -33.939,33.939 -18.747,0 -33.94,-15.192 -33.94,-33.939 0,-18.747 15.192,-33.939 33.94,-33.939 z m 0,89.729 c 1.745,0 3.62,-0.065 5.301,-0.323 l 23.467,62.448 -46.675,-29.349 12.412,-32.97 c 1.874,0.129 3.62,0.194 5.495,0.194 z m -25.665,53.721 47.192,29.673 -69.883,30.448 z m -11.766,79.192 79.644,-34.78 26.57,70.659 z"
             id="path1133" />
        </g>
        <path
           style="fill:#56ace0"
           d="m 196.37,152.404 c 18.683,0 33.939,-15.192 33.939,-33.939 0,-18.747 -15.257,-33.939 -33.939,-33.939 -18.682,0 -33.939,15.192 -33.939,33.939 0,18.747 15.191,33.939 33.939,33.939 z"
           id="path1137" />
        <g
           id="g1139" />
        <g
           id="g1141" />
        <g
           id="g1143" />
        <g
           id="g1145" />
        <g
           id="g1147" />
        <g
           id="g1149" />
        <g
           id="g1151" />
        <g
           id="g1153" />
        <g
           id="g1155" />
        <g
           id="g1157" />
        <g
           id="g1159" />
        <g
           id="g1161" />
        <g
           id="g1163" />
        <g
           id="g1165" />
        <g
           id="g1167" />
      </g>
    </g>
  </g>
</svg>
